<?xml version="1.0" encoding="UTF-8" standalone="no"?>
<svg xmlns:dc="http://purl.org/dc/elements/1.1/"
    xmlns:rdf="http://www.w3.org/1999/02/22-rdf-syntax-ns#" xmlns="http://www.w3.org/2000/svg"
    xmlns:sodipodi="http://sodipodi.sourceforge.net/DTD/sodipodi-0.dtd"
    xmlns:inkscape="http://www.inkscape.org/namespaces/inkscape" width="32" height="32"
    viewBox="0 0 32 32.000001" id="svg4063" version="1.1" inkscape:version="0.91 r13725"
    sodipodi:docname="14.svg">
    <defs id="defs4065" />
    <sodipodi:namedview id="base" pagecolor="#ffffff" bordercolor="#666666" borderopacity="1.0"
        inkscape:pageopacity="0.0" inkscape:pageshadow="2" inkscape:zoom="5.6"
        inkscape:cx="25.235988" inkscape:cy="-4.112881" inkscape:document-units="px"
        inkscape:current-layer="layer1" showgrid="true" units="px" inkscape:window-width="1366"
        inkscape:window-height="705" inkscape:window-x="-8" inkscape:window-y="-8"
        inkscape:window-maximized="1" inkscape:snap-bbox="true" inkscape:bbox-paths="true"
        inkscape:bbox-nodes="true" inkscape:snap-bbox-edge-midpoints="true"
        inkscape:snap-bbox-midpoints="true">
        <inkscape:grid type="xygrid" id="grid4071" />
    </sodipodi:namedview>

    <g inkscape:label="Layer 1" inkscape:groupmode="layer" id="layer1"
        transform="translate(0,-1020.3621)">
        <g id="g7748">
            <path
                style="fill:#34a853;fill-opacity:1;fill-rule:evenodd;stroke:none;stroke-width:0.99999994px;stroke-linecap:round;stroke-linejoin:round;stroke-opacity:1"
                d="m 27.00041,1034.4141 c 0,7.0042 -4.7139,13.1352 -11.49303,14.948 l -0.007,-0.01 0,-2.9796 -3e-5,-0.01 c -4.65131,0 -8.84463,-2.8019 -10.62462,-7.0991 -1.77999,-4.2973 -0.79609,-9.2436 2.49289,-12.5326 3.28897,-3.289 8.23533,-4.2729 12.53259,-2.4929 4.29725,1.78 7.09913,5.9733 7.09914,10.6246"
                id="path5154" inkscape:connector-curvature="0" sodipodi:nodetypes="cccccsssc" />
            <path
                style="opacity:1;fill:#ffffff;fill-opacity:1;stroke:none;stroke-width:1;stroke-linecap:round;stroke-linejoin:round;stroke-miterlimit:4.0999999;stroke-dasharray:none"
                d="m 22.00049,1036.3712 c -3e-5,1.6529 -1.33997,2.9928 -2.99286,2.9928 l -0.008,-2.0006 c 0.55228,0 1,-0.4477 1,-1 l -5e-5,-0.9997 -2.99998,0 -10e-6,0 -10e-6,0 0,-5 2e-5,0 4.99996,0 2e-5,0 0,5 z"
                id="path5156" inkscape:connector-curvature="0"
                sodipodi:nodetypes="cccccccccccccc" />
            <path sodipodi:nodetypes="cccccccccccccc" inkscape:connector-curvature="0" id="path5158"
                d="m 14.00049,1036.3712 c -3e-5,1.6529 -1.33997,2.9928 -2.99286,2.9928 l -0.008,-2.0006 c 0.55228,0 1,-0.4477 1,-1 l -5e-5,-0.9997 -2.99998,0 -10e-6,0 -10e-6,0 0,-5 2e-5,0 4.99996,0 2e-5,0 0,5 z"
                style="opacity:1;fill:#ffffff;fill-opacity:1;stroke:none;stroke-width:1;stroke-linecap:round;stroke-linejoin:round;stroke-miterlimit:4.0999999;stroke-dasharray:none" />
        </g>
    </g>

    <metadata>
        <rdf:RDF xmlns:rdf="http://www.w3.org/1999/02/22-rdf-syntax-ns#"
            xmlns:dc="http://purl.org/dc/elements/1.1/">
            <rdf:Description about="https://iconscout.com/legal#licenses"
                dc:title="14 hangouts social media chatting service google"
                dc:description="14 hangouts social media chatting service google"
                dc:publisher="Iconscout" dc:date="2017-02-19" dc:format="image/svg+xml"
                dc:language="en">
                <dc:creator>
                    <rdf:Bag>
                        <rdf:li>Iconscout Store</rdf:li>
                    </rdf:Bag>
                </dc:creator>
            </rdf:Description>
        </rdf:RDF>
    </metadata>
</svg>
