<?xml version="1.0" encoding="UTF-8"?>
<svg xmlns="http://www.w3.org/2000/svg" viewBox="0 0 48 48" version="1.1">
    <g id="surface1">
        <path d="M42 37a5 5 0 0 1-5 5H11a5 5 0 0 1-5-5V11a5 5 0 0 1 5-5h26a5 5 0 0 1 5 5z"
            fill="#006064" />
        <path
            d="M16.648 30H12.61a.597.597 0 0 1-.527-.273.613.613 0 0 1 0-.614l4.293-7.523c.004-.012.004-.016 0-.024l-2.73-4.699c-.118-.219-.133-.441-.024-.613.102-.168.305-.254.547-.254h4.039c.621 0 .926.398 1.125.754l2.777 4.812c-.164.286-4.359 7.657-4.359 7.657-.207.37-.5.777-1.102.777z"
            fill="#FFF" />
        <path
            d="M35.914 11.883l-8.941 15.805c-.004.011-.004.019 0 .027l5.691 10.402c.113.227.117.453.012.625-.106.164-.293.258-.535.258h-4.036c-.617 0-.925-.41-1.125-.77 0 0-5.726-10.5-5.742-10.527.29-.504 8.985-15.933 8.985-15.933.218-.387.48-.77 1.082-.77h4.082c.242 0 .433.09.535.258.105.172.101.398-.008.625z"
            fill="#CDDC39" />
    </g>
    <metadata>
        <rdf:RDF xmlns:rdf="http://www.w3.org/1999/02/22-rdf-syntax-ns#"
            xmlns:dc="http://purl.org/dc/elements/1.1/">
            <rdf:Description about="https://iconscout.com/legal#licenses" dc:title="xing"
                dc:description="xing" dc:publisher="Iconscout" dc:date="2017-12-15"
                dc:format="image/svg+xml" dc:language="en">
                <dc:creator>
                    <rdf:Bag>
                        <rdf:li>Icons8</rdf:li>
                    </rdf:Bag>
                </dc:creator>
            </rdf:Description>
        </rdf:RDF>
    </metadata>
</svg>